<?xml version="1.0" encoding="UTF-8" standalone="no"?>
<svg
   xmlns:dc="http://purl.org/dc/elements/1.1/"
   xmlns:cc="http://creativecommons.org/ns#"
   xmlns:rdf="http://www.w3.org/1999/02/22-rdf-syntax-ns#"
   xmlns:svg="http://www.w3.org/2000/svg"
   xmlns="http://www.w3.org/2000/svg"
   xmlns:sodipodi="http://sodipodi.sourceforge.net/DTD/sodipodi-0.dtd"
   xmlns:inkscape="http://www.inkscape.org/namespaces/inkscape"
   width="100%"
   height="100%"
   viewBox="0 0 260.00001 146.25004"
   version="1.1"
   id="svg16"
   inkscape:version="1.0.1 (3bc2e813f5, 2020-09-07)"
   sodipodi:docname="world.svg">
  <defs
     id="defs10" />
  <sodipodi:namedview
     id="base"
     pagecolor="#ffffff"
     bordercolor="#666666"
     borderopacity="1.0"
     inkscape:pageopacity="0.0"
     inkscape:pageshadow="2"
     inkscape:zoom="2.8"
     inkscape:cx="137.35631"
     inkscape:cy="75.456237"
     inkscape:document-units="cm"
     inkscape:current-layer="layer1"
     inkscape:document-rotation="0"
     showgrid="false"
     inkscape:object-paths="false"
     inkscape:object-nodes="true"
     inkscape:window-width="1366"
     inkscape:window-height="721"
     inkscape:window-x="-4"
     inkscape:window-y="-4"
     inkscape:window-maximized="1"
     fit-margin-top="0"
     fit-margin-left="0"
     fit-margin-right="0"
     fit-margin-bottom="0"
     showguides="false"
     units="px"
     inkscape:showpageshadow="true"
     inkscape:pagecheckerboard="false" />
  <metadata
     id="metadata13">
    <rdf:RDF>
      <cc:Work
         rdf:about="">
        <dc:format>image/svg+xml</dc:format>
        <dc:type
           rdf:resource="http://purl.org/dc/dcmitype/StillImage" />
        <dc:title />
      </cc:Work>
    </rdf:RDF>
  </metadata>
  <g
     inkscape:label="Слой 1"
     inkscape:groupmode="layer"
     id="layer1"
     transform="translate(-0.75595093,-0.7559514)">
    <rect
       style="fill:#00ffff;stroke-width:0.265778"
       id="rect34"
       width="260"
       height="146.25003"
       x="0.75595093"
       y="0.7559514" />
    <ellipse
       style="fill:#00ff00;stroke:none;stroke-width:0.274459;stroke-opacity:1"
       id="path22"
       cx="130.75595"
       cy="73.880951"
       rx="120"
       ry="63.125"
       onclick=""
       onmouseover="" />
    <circle
       style="fill:#ff5555;stroke-width:0.277636"
       id="path24"
       cx="50.232105"
       cy="50.991646"
       r="3.5696156" />
    <circle
       style="fill:#ccff00;stroke-width:0.277636"
       id="path24-0"
       cx="52.611847"
       cy="77.565453"
       r="3.5696156" />
    <circle
       style="fill:#ccff00;stroke-width:0.277636"
       id="path24-6"
       cx="75.616035"
       cy="42.265911"
       r="3.5696156" />
    <circle
       style="fill:#ff5555;stroke-width:0.277636"
       id="path24-3"
       cx="75.219414"
       cy="65.270111"
       r="3.5696156" />
    <circle
       style="fill:#ff5555;stroke-width:0.277636"
       id="path24-2"
       cx="62.924072"
       cy="103.34602"
       r="3.5696156" />
    <circle
       style="fill:#ccff00;stroke-width:0.277636"
       id="path24-9"
       cx="87.911377"
       cy="120.40083"
       r="3.5696156" />
    <circle
       style="fill:#ff5555;stroke-width:0.277636"
       id="path24-1"
       cx="82.358635"
       cy="90.654053"
       r="3.5696156" />
    <circle
       style="fill:#ff5555;stroke-width:0.277636"
       id="path24-24"
       cx="194.37946"
       cy="57.342648"
       r="3.5696156" />
    <circle
       style="fill:#ff5555;stroke-width:0.277636"
       id="path24-98"
       cx="184.06723"
       cy="93.832054"
       r="3.5696156" />
    <circle
       style="fill:#0066ff;stroke-width:0.277636"
       id="path24-8"
       cx="98.620224"
       cy="48.215267"
       r="3.5696156" />
    <circle
       style="fill:#0066ff;stroke-width:0.277636"
       id="path24-8-9"
       cx="94.257355"
       cy="75.582336"
       r="3.5696156" />
    <circle
       style="fill:#0066ff;stroke-width:0.277636"
       id="path24-8-1"
       cx="66.890312"
       cy="83.911438"
       r="3.5696156" />
    <circle
       style="fill:#0066ff;stroke-width:0.277636"
       id="path24-8-6"
       cx="204.29504"
       cy="81.933342"
       r="3.5696156" />
    <circle
       style="fill:#0066ff;stroke-width:0.277636"
       id="path24-8-4"
       cx="193.5862"
       cy="108.90376"
       r="3.5696156" />
    <circle
       style="fill:#0066ff;stroke-width:0.277636"
       id="path24-8-47"
       cx="165.82253"
       cy="62.895382"
       r="3.5696156" />
    <circle
       style="fill:#0066ff;stroke-width:0.277636"
       id="path24-8-48"
       cx="180.89424"
       cy="42.667557"
       r="3.5696156" />
    <circle
       style="fill:#0066ff;stroke-width:0.277636"
       id="path24-8-2"
       cx="169.78876"
       cy="80.743477"
       r="3.5696156" />
    <path
       style="fill:#48373e;stroke-width:0.277636"
       id="path144"
       d="m 110.6024,37.310303 c 1.57339,-2.87566 3.54306,-5.506532 5.4499,-8.164618 2.06789,-2.715834 3.95917,-5.55416 5.88805,-8.366983 2.89631,-2.415542 -2.81124,1.327049 -3.46856,1.813484 -0.14992,0.112643 0.35062,0.151037 0.48977,0.276737 0.49728,0.44921 1.1965,1.506926 1.53503,1.980136 2.24167,3.543084 4.24763,7.228099 6.46604,10.786097 1.51889,2.360576 3.14683,4.648382 4.7451,6.95561 l 4.93883,-2.915545 v 0 c -1.6616,-2.254952 -3.29971,-4.528314 -4.89005,-6.833973 -2.27174,-3.533342 -4.32445,-7.192487 -6.39066,-10.847909 -0.1283,-0.203112 -1.79569,-2.919611 -2.1346,-2.802121 -3.16199,1.096157 -4.9853,1.606804 -6.53243,3.882479 -1.80771,2.82637 -3.70477,5.589486 -5.7228,8.271538 -1.96997,2.731063 -3.95926,5.450688 -5.71042,8.330417 z" />
    <path
       style="fill:#48373e;stroke-width:0.277636"
       id="path146"
       d="m 122.62573,39.453389 c 2.19406,-2.396846 4.74198,-4.424083 7.22668,-6.504893 1.72286,-1.411659 3.48154,-2.783323 5.30319,-4.066058 0.32143,-0.226343 1.31805,-0.856276 0.97741,-0.660012 -1.36789,0.78815 -2.70743,1.624523 -4.06114,2.436786 0.49513,-0.147409 0.86569,-0.342119 1.39156,-0.202692 1.20106,0.318446 2.29063,2.406838 2.89071,3.335986 1.63456,2.736313 3.12434,5.551178 4.28676,8.52072 0.52427,1.12029 0.83472,2.31639 1.23906,3.478542 0,0 5.1176,-2.839194 5.1176,-2.839194 v 0 c -0.44706,-1.145685 -0.8265,-2.318543 -1.38733,-3.41885 -1.25713,-2.961477 -2.82636,-5.76364 -4.39045,-8.571525 -0.69831,-1.167282 -1.69766,-3.240038 -3.01623,-3.853562 -0.65103,-0.302918 -0.95681,-0.146315 -1.6268,-0.03728 -1.92077,1.080926 -3.85838,2.13247 -5.76233,3.242778 -0.27897,0.162679 -1.8531,1.347264 -2.02591,1.477458 -1.38532,1.043687 -2.749,2.115473 -4.07594,3.232861 -2.56228,2.144369 -5.14344,4.27233 -7.48307,6.664124 0,0 5.39623,-2.23519 5.39623,-2.235189 z" />
    <path
       style="fill:#48373e;stroke-width:0.277636"
       id="path144-3"
       d="m 113.14124,65.205762 c 1.57339,-2.875653 3.54306,-5.506527 5.4499,-8.16461 2.06789,-2.715838 3.95916,-5.554166 5.88804,-8.366988 2.1429,-2.045115 -2.52568,1.205829 -3.46856,1.813487 -0.1499,0.112636 0.35063,0.151031 0.48978,0.276731 0.49728,0.44921 1.1965,1.50693 1.53502,1.980139 2.24168,3.543082 4.24764,7.228098 6.46605,10.786102 1.51888,2.360575 3.14682,4.648379 4.7451,6.955607 l 4.93882,-2.915548 v 0 c -1.66159,-2.25495 -3.29971,-4.528315 -4.89004,-6.833968 -2.27174,-3.533345 -4.32445,-7.192495 -6.39067,-10.847913 -0.1283,-0.203112 -1.79568,-2.919611 -2.1346,-2.802121 -3.16198,1.096157 -4.98529,1.606804 -6.53241,3.88248 -1.80772,2.826365 -3.70478,5.589487 -5.72281,8.271537 -1.96997,2.731064 -3.95927,5.450691 -5.71042,8.330415 z" />
    <path
       style="fill:#48373e;stroke-width:0.277636"
       id="path146-3"
       d="m 125.16456,67.348852 c 2.19406,-2.396851 4.74198,-4.424084 7.22669,-6.504896 1.72286,-1.411661 3.48154,-2.783322 5.30318,-4.066051 0.32144,-0.226341 1.31805,-0.856279 0.97742,-0.660021 -1.3679,0.788156 -2.70744,1.624529 -4.06114,2.436788 0.49513,-0.14741 0.86569,-0.342115 1.39155,-0.202689 1.20106,0.318442 2.29064,2.40684 2.89071,3.335985 1.63456,2.736311 3.12435,5.551176 4.28677,8.520723 0.52427,1.120292 0.83472,2.316388 1.23906,3.478538 0,0 5.1176,-2.839188 5.1176,-2.839188 v 0 c -0.44706,-1.145686 -0.8265,-2.31855 -1.38733,-3.418852 -1.25714,-2.961478 -2.82636,-5.763645 -4.39045,-8.571531 -0.69831,-1.167282 -1.69766,-3.240035 -3.01623,-3.853561 -0.65103,-0.302911 -0.95681,-0.146308 -1.6268,-0.03725 -1.92078,1.080931 -3.85839,2.132471 -5.76233,3.242784 -0.27897,0.162678 -1.8531,1.347263 -2.02591,1.477454 -1.38533,1.043691 -2.749,2.115472 -4.07595,3.232857 -2.56228,2.14437 -5.14343,4.272329 -7.48306,6.664133 0,0 5.39622,-2.235191 5.39622,-2.235191 z" />
    <path
       style="fill:#48373e;stroke-width:0.277636"
       id="path144-8"
       d="m 116.31423,93.762682 c 1.57339,-2.875653 3.54305,-5.506526 5.4499,-8.16461 2.0679,-2.715838 3.95917,-5.554166 5.88804,-8.366984 2.14291,-2.045122 -2.52567,1.205821 -3.46855,1.813483 -0.14991,0.112646 0.35062,0.151031 0.48977,0.276731 0.49728,0.44921 1.1965,1.50693 1.53503,1.980139 2.24167,3.543082 4.24763,7.228098 6.46604,10.786102 1.51888,2.360576 3.14682,4.64838 4.7451,6.955607 l 4.93882,-2.915548 v 0 c -1.66159,-2.25495 -3.29971,-4.528315 -4.89004,-6.833968 -2.27174,-3.533345 -4.32445,-7.192494 -6.39066,-10.847908 -0.12831,-0.20312 -1.79569,-2.91961 -2.1346,-2.802126 -3.16199,1.096157 -4.9853,1.606806 -6.53242,3.88248 -1.80771,2.826376 -3.70478,5.589487 -5.72281,8.271537 -1.96997,2.731064 -3.95926,5.450691 -5.71041,8.330415 z" />
    <path
       style="fill:#48373e;stroke-width:0.277636"
       id="path146-7"
       d="m 128.33756,95.905772 c 2.19405,-2.396851 4.74198,-4.424084 7.22668,-6.504896 1.72286,-1.411661 3.48154,-2.783321 5.30318,-4.066051 0.32144,-0.226341 1.31805,-0.856279 0.97742,-0.660011 -1.36789,0.788146 -2.70743,1.624519 -4.06114,2.436778 0.49513,-0.14741 0.86569,-0.342115 1.39156,-0.202689 1.20105,0.318442 2.29063,2.40684 2.89071,3.335985 1.63456,2.736311 3.12434,5.551176 4.28676,8.520723 0.52427,1.120293 0.83472,2.316379 1.23906,3.478529 0,0 5.1176,-2.839179 5.1176,-2.839179 v 0 c -0.44706,-1.145686 -0.8265,-2.31855 -1.38733,-3.418852 -1.25713,-2.961477 -2.82636,-5.763645 -4.39045,-8.571531 -0.69831,-1.167282 -1.69766,-3.240035 -3.01623,-3.85356 -0.65103,-0.302912 -0.95681,-0.146309 -1.6268,-0.03725 -1.92078,1.080932 -3.85838,2.132471 -5.76233,3.242784 -0.27897,0.162678 -1.8531,1.347263 -2.02591,1.477454 -1.38532,1.043691 -2.749,2.115472 -4.07595,3.232857 -2.56228,2.14437 -5.14343,4.272329 -7.48306,6.664133 0,0 5.39623,-2.235191 5.39623,-2.235191 z" />
    <path
       style="fill:#48373e;stroke-width:0.277636"
       id="path144-0"
       d="m 115.96626,121.4152 c 1.57339,-2.87566 3.54305,-5.50653 5.4499,-8.16462 2.06788,-2.71583 3.95916,-5.55416 5.88803,-8.36698 2.14291,-2.04512 -2.52566,1.20582 -3.46854,1.81348 -0.14992,0.11265 0.35062,0.15104 0.48976,0.27674 0.49728,0.44921 1.1965,1.50692 1.53503,1.98013 2.24167,3.5431 4.24763,7.2281 6.46604,10.78611 1.51888,2.36057 3.14682,4.64838 4.7451,6.9556 l 4.93882,-2.91555 v 0 c -1.66159,-2.25495 -3.29971,-4.52831 -4.89004,-6.83396 -2.27174,-3.53335 -4.32445,-7.19249 -6.39066,-10.84791 -0.12831,-0.20311 -1.79569,-2.91961 -2.1346,-2.80213 -3.16199,1.09616 -4.98529,1.60681 -6.53242,3.88248 -1.80772,2.82638 -3.70477,5.58949 -5.72281,8.27154 -1.96997,2.73106 -3.95926,5.45069 -5.71042,8.33041 z" />
    <path
       style="fill:#48373e;stroke-width:0.277636"
       id="path146-5"
       d="m 127.98958,123.55828 c 2.19405,-2.39684 4.74198,-4.42408 7.22668,-6.50489 1.72286,-1.41165 3.48154,-2.78332 5.30318,-4.06605 0.32144,-0.22634 1.31805,-0.85628 0.97742,-0.66001 -1.36789,0.78814 -2.70744,1.62452 -4.06114,2.43677 0.49513,-0.1474 0.86569,-0.34211 1.39155,-0.20268 1.20106,0.31845 2.29064,2.40684 2.89071,3.33598 1.63457,2.73631 3.12435,5.55118 4.28677,8.52072 0.52427,1.1203 0.83472,2.31639 1.23906,3.47854 0,0 5.1176,-2.83919 5.1176,-2.83919 v 0 c -0.44706,-1.14568 -0.82649,-2.31855 -1.38733,-3.41885 -1.25713,-2.96148 -2.82636,-5.76364 -4.39045,-8.57152 -0.69831,-1.16729 -1.69766,-3.24004 -3.01623,-3.85357 -0.65103,-0.30291 -0.95681,-0.14631 -1.6268,-0.0373 -1.92078,1.08093 -3.85839,2.13247 -5.76233,3.24278 -0.27897,0.16268 -1.8531,1.34727 -2.02591,1.47746 -1.38533,1.04369 -2.749,2.11547 -4.07595,3.23286 -2.56228,2.14436 -5.14342,4.27233 -7.48305,6.66413 0,0 5.39622,-2.23519 5.39622,-2.23519 z" />
    <rect
       style="display:none;fill:#48373e;stroke-width:0.264583"
       id="rect182"
       width="211.28868"
       height="148.92261"
       x="3.0238097"
       y="58.586308" />
  </g>
</svg>
